<svg width="133" height="138" viewBox="0 0 133 138" fill="none" xmlns="http://www.w3.org/2000/svg">
<path d="M57 68.2001C35.1 55.0001 56.6 46.6001 76.3 45.6001H92.8C97.4 45.6001 101 49.0001 101 53.6001V87.9001C101 92.5001 97.4 96.6001 92.8 96.6001H76V113.1C76 117.7 72.2 121.6 67.7 121.6H56.6C78.4 103.6 83.5 84.2001 57 68.2001Z" fill="#069948"/>
<path d="M8.2 45.6001H25V28.4001C25 23.8001 28.8 19.6001 33.3 19.6001H67.7C72.3 19.6001 76 23.8001 76 28.4001V41.7001C60 40.0001 45.1 45.5001 40.1 52.8001C39.5 53.7001 38.7 55.7001 38.5 56.8001C38.2 58.8001 38.2 60.6001 39.4 62.3001C44 68.9001 52.7 75.6001 56.6 81.0001C63.3 90.5001 45.7 105.7 26 116.9C25.4 115.8 25 114.5 25 113.1V96.6001H8.2C3.6 96.6001 0 92.5001 0 87.9001V53.6001C0 49.0001 3.6 45.6001 8.2 45.6001Z" fill="#1C4C5B"/>
<path d="M120.3 68.2C120.3 32.7 91.3001 3.9 55.5001 3.9C43.8001 3.9 32.9001 7 23.5001 12.3C34.7001 4.6 48.3001 0 63.0001 0C101.2 0 132.1 30.7 132.1 68.6C132.1 106.5 101.1 137.2 63.0001 137.2C45.7001 137.2 29.9001 130.9 17.8001 120.5C28.4001 128.1 41.5001 132.5 55.5001 132.5C91.3001 132.5 120.3 103.7 120.3 68.2Z" fill="#1C4C5B"/>
<path d="M101.2 27.1999C124.5 51.2999 124.4 89.3999 101.1 112.2C91.6002 121.5 79.7002 126.7 67.4002 128.2C70.7002 127.3 74.0002 126.1 77.2002 124.6C83.2002 122.1 88.7002 118.4 93.6002 113.7C96.4002 110.9 98.9002 107.9 101 104.7C117.1 81.9999 115.8 50.6999 96.2002 30.3999C74.2002 7.59994 37.4002 7.59994 14.0002 30.3999C10.2002 34.0999 7.10017 38.1999 4.50017 42.4999C7.40017 36.0999 11.5002 30.0999 16.8002 24.8999C40.1002 2.09994 78.0002 3.09994 101.2 27.1999Z" fill="#069948"/>
</svg>
